<svg width="100%" height="100%" viewBox="0 0 172 75" fill="none" xmlns="http://www.w3.org/2000/svg">
<g clip-path="url(#clip0_11516_24049)">
<rect y="0.602051" width="73.7959" height="73.7959" rx="36.898" fill="#6A68BA"/>
<g clip-path="url(#clip1_11516_24049)">
<path d="M56 37.6021C56 27.1086 47.4934 18.6021 37 18.6021C26.5066 18.6021 18 27.1086 18 37.6021C18 48.0955 26.5066 56.6021 37 56.6021C47.4934 56.6021 56 48.0955 56 37.6021Z" fill="url(#paint0_linear_11516_24049)"/>
<g style="mix-blend-mode:screen" opacity="0.8">
<path fill-rule="evenodd" clip-rule="evenodd" d="M47.625 46.8521V43.0821L47.6149 43.0818L45.0203 37.1021H40.8686L43.3337 42.952H35.2961C33.7463 42.952 32.2836 42.3417 31.1776 41.2334C30.0716 40.1246 29.4616 38.6588 29.4616 37.106C29.4616 35.5532 30.0716 34.0873 31.1776 32.9791C32.2834 31.8709 33.7463 31.2605 35.2961 31.2605L42.9545 31.252L41.3328 27.352L35.2961 27.3605C29.9334 27.3605 25.375 31.7318 25.375 37.106C25.375 42.4801 29.9334 46.8521 35.2961 46.8521H47.625ZM34.6443 36.5821C35.7192 36.5821 36.5903 35.709 36.5903 34.6321C36.5903 33.5552 35.7192 32.6821 34.6443 32.6821C33.5695 32.6821 32.6983 33.5552 32.6983 34.6321C32.6983 35.709 33.5695 36.5821 34.6443 36.5821ZM36.5903 39.6371C36.5903 40.714 35.7192 41.5871 34.6443 41.5871C33.5695 41.5871 32.6983 40.714 32.6983 39.6371C32.6983 38.5602 33.5695 37.6871 34.6443 37.6871C35.7192 37.6871 36.5903 38.5602 36.5903 39.6371Z" fill="white"/>
<path d="M47.625 43.0821H47.9961V42.7221L47.6363 42.7111L47.625 43.0821ZM47.625 46.8521V47.2232H47.9961V46.8521H47.625ZM47.6149 43.0818L47.2744 43.2295L47.3682 43.4454L47.6037 43.4527L47.6149 43.0818ZM45.0203 37.1021L45.3608 36.9543L45.2638 36.731H45.0203V37.1021ZM40.8686 37.1021V36.731H40.3096L40.5268 37.2461L40.8686 37.1021ZM43.3337 42.952V43.3231H43.8927L43.6757 42.8079L43.3337 42.952ZM35.2961 31.2605V31.6316H35.2964L35.2961 31.2605ZM42.9545 31.252L42.9549 31.6231L43.5105 31.6225L43.2972 31.1095L42.9545 31.252ZM41.3328 27.352L41.6754 27.2095L41.5802 26.9806L41.3322 26.9809L41.3328 27.352ZM35.2961 27.3604V27.7315H35.2966L35.2961 27.3604ZM47.2539 43.0821V46.8521H47.9961V43.0821H47.2539ZM47.6037 43.4527L47.6138 43.453L47.6363 42.7111L47.6262 42.7108L47.6037 43.4527ZM44.6799 37.2498L47.2744 43.2295L47.9553 42.9341L45.3608 36.9543L44.6799 37.2498ZM40.8686 37.4732H45.0203V36.731H40.8686V37.4732ZM43.6757 42.8079L41.2106 36.958L40.5268 37.2461L42.9917 43.0962L43.6757 42.8079ZM35.2961 43.3231H43.3337V42.5809H35.2961V43.3231ZM30.9148 41.4956C32.0897 42.6728 33.6467 43.3231 35.2961 43.3231V42.5809C33.846 42.5809 32.4773 42.0106 31.4402 40.9713L30.9148 41.4956ZM29.0905 37.106C29.0905 38.7581 29.7401 40.3178 30.9148 41.4956L31.4403 40.9714C30.4029 39.9313 29.8327 38.5595 29.8327 37.106H29.0905ZM30.9148 32.717C29.7401 33.8941 29.0905 35.4538 29.0905 37.106H29.8327C29.8327 35.6523 30.4029 34.2806 31.4403 33.2412L30.9148 32.717ZM35.2961 30.8894C33.6467 30.8894 32.0897 31.5397 30.9148 32.717L31.4403 33.2412C32.4774 32.2019 33.846 31.6316 35.2961 31.6316V30.8894ZM42.954 30.8809L35.2957 30.8894L35.2964 31.6316L42.9549 31.6231L42.954 30.8809ZM40.99 27.4945L42.6119 31.3945L43.2972 31.1095L41.6754 27.2095L40.99 27.4945ZM35.2966 27.7315L41.3332 27.7231L41.3322 26.9809L35.2955 26.9893L35.2966 27.7315ZM25.7461 37.106C25.7461 31.9455 30.1295 27.7315 35.2961 27.7315V26.9893C29.7373 26.9893 25.0039 31.518 25.0039 37.106H25.7461ZM35.2961 46.481C30.1295 46.481 25.7461 42.2664 25.7461 37.106H25.0039C25.0039 42.6939 29.7373 47.2232 35.2961 47.2232V46.481ZM47.625 46.481H35.2961V47.2232H47.625V46.481ZM36.2192 34.6321C36.2192 35.5048 35.5134 36.211 34.6443 36.211V36.9532C35.9248 36.9532 36.9614 35.9133 36.9614 34.6321H36.2192ZM34.6443 33.0532C35.5134 33.0532 36.2192 33.7594 36.2192 34.6321H36.9614C36.9614 33.3509 35.9248 32.311 34.6443 32.311V33.0532ZM33.0694 34.6321C33.0694 33.7594 33.7752 33.0532 34.6443 33.0532V32.311C33.3639 32.311 32.3272 33.3509 32.3272 34.6321H33.0694ZM34.6443 36.211C33.7752 36.211 33.0694 35.5048 33.0694 34.6321H32.3272C32.3272 35.9133 33.3639 36.9532 34.6443 36.9532V36.211ZM34.6443 41.9582C35.9248 41.9582 36.9614 40.9183 36.9614 39.6371H36.2192C36.2192 40.5098 35.5134 41.216 34.6443 41.216V41.9582ZM32.3272 39.6371C32.3272 40.9183 33.3639 41.9582 34.6443 41.9582V41.216C33.7752 41.216 33.0694 40.5098 33.0694 39.6371H32.3272ZM34.6443 37.316C33.3639 37.316 32.3272 38.356 32.3272 39.6371H33.0694C33.0694 38.7643 33.7752 38.0582 34.6443 38.0582V37.316ZM36.9614 39.6371C36.9614 38.356 35.9248 37.316 34.6443 37.316V38.0582C35.5134 38.0582 36.2192 38.7643 36.2192 39.6371H36.9614Z" fill="black"/>
</g>
</g>
<g filter="url(#filter0_f_11516_24049)">
<rect x="43.7959" y="0.602051" width="73.7959" height="73.7959" rx="36.898" fill="black"/>
</g>
</g>
<rect x="3" y="3.60205" width="67.7959" height="67.7959" rx="33.898" stroke="#9481FA" stroke-width="6"/>
<g clip-path="url(#clip2_11516_24049)">
<rect x="48.7959" y="0.602051" width="73.7959" height="73.7959" rx="36.898" fill="#2775C9"/>
<path d="M86.1962 58.188C82.2442 58.188 78.381 57.0161 75.095 54.8205C71.8091 52.6249 69.248 49.5042 67.7356 45.8531C66.2233 42.2019 65.8276 38.1843 66.5985 34.3082C67.3695 30.4322 69.2726 26.8718 72.0671 24.0773C74.8616 21.2829 78.4219 19.3798 82.298 18.6088C86.174 17.8378 90.1917 18.2335 93.8428 19.7459C97.494 21.2582 100.615 23.8193 102.81 27.1053C105.006 30.3912 106.178 34.2545 106.178 38.2064C106.178 43.5059 104.073 48.5883 100.325 52.3355C96.578 56.0828 91.4956 58.188 86.1962 58.188ZM85.0058 30.792C83.9125 30.8462 82.879 31.3072 82.1081 32.0843C81.3373 32.8615 80.8848 33.8987 80.8394 34.9924C80.8394 37.0501 82.0978 38.3935 84.7677 38.9547L86.6383 39.3968C88.4579 39.822 89.2062 40.4342 89.2062 41.4715C89.2062 42.5089 87.8967 43.5292 86.1962 43.5292C85.5921 43.5846 84.9847 43.4688 84.4434 43.1951C83.9021 42.9215 83.4487 42.5009 83.1352 41.9817C83.0423 41.7847 82.8956 41.6179 82.7121 41.5005C82.5286 41.3832 82.3157 41.3201 82.0978 41.3185H81.0945C81.0174 41.3328 80.9438 41.3622 80.878 41.405C80.8123 41.4478 80.7557 41.5032 80.7114 41.568C80.6671 41.6328 80.6361 41.7057 80.6202 41.7826C80.6042 41.8594 80.6036 41.9386 80.6184 42.0157C80.8628 43.0132 81.431 43.9015 82.2341 44.5415C83.0373 45.1815 84.03 45.5372 85.0568 45.5529V46.9813C85.0568 47.2993 85.1831 47.6042 85.408 47.8291C85.6328 48.0539 85.9377 48.1802 86.2557 48.1802C86.5737 48.1802 86.8786 48.0539 87.1035 47.8291C87.3283 47.6042 87.4546 47.2993 87.4546 46.9813V45.5359C88.6157 45.5227 89.7258 45.0567 90.5485 44.2373C91.3712 43.4178 91.8414 42.3095 91.8591 41.1484C91.8591 38.9887 90.6176 37.7473 87.6757 37.1181L85.9751 36.744C84.2746 36.3188 83.4753 35.7576 83.4753 34.8053C83.4753 33.853 84.4956 32.7987 86.1962 32.7987C86.7318 32.7427 87.2721 32.843 87.7519 33.0875C88.2317 33.3319 88.6305 33.71 88.9001 34.1761C89.0094 34.4089 89.1824 34.6059 89.3991 34.7444C89.6158 34.8828 89.8673 34.957 90.1245 34.9584H90.9237C91.1055 34.9139 91.2625 34.7999 91.3611 34.6409C91.4596 34.482 91.4919 34.2906 91.4509 34.1081C91.2205 33.1871 90.7052 32.3624 89.9784 31.7517C89.2516 31.1409 88.3505 30.7753 87.4036 30.707V29.5336C87.4036 29.2156 87.2773 28.9107 87.0524 28.6858C86.8276 28.461 86.5227 28.3347 86.2047 28.3347C85.8867 28.3347 85.5818 28.461 85.3569 28.6858C85.1321 28.9107 85.0058 29.2156 85.0058 29.5336V30.792ZM71.2143 38.2064C71.2162 41.339 72.2022 44.3918 74.0331 46.9336C75.8639 49.4754 78.4471 51.3778 81.4176 52.3721H81.6557C81.8587 52.3721 82.0533 52.2915 82.1968 52.148C82.3403 52.0045 82.4209 51.8098 82.4209 51.6069V51.2497C82.4215 50.9332 82.3281 50.6236 82.1525 50.3602C81.9769 50.0968 81.727 49.8915 81.4346 49.7702C79.1212 48.8365 77.1396 47.2326 75.7442 45.1646C74.3488 43.0966 73.6032 40.6587 73.6032 38.1639C73.6032 35.6691 74.3488 33.2313 75.7442 31.1633C77.1396 29.0952 79.1212 27.4914 81.4346 26.5576C81.7257 26.4394 81.975 26.2371 82.1506 25.9767C82.3263 25.7162 82.4204 25.4093 82.4209 25.0951V24.704C82.422 24.5892 82.3954 24.4757 82.3434 24.3734C82.2913 24.271 82.2153 24.1827 82.1219 24.116C82.0284 24.0492 81.9203 24.006 81.8065 23.9899C81.6928 23.9739 81.5769 23.9855 81.4686 24.0238C78.4858 25.0103 75.8896 26.9115 74.0488 29.4575C72.208 32.0035 71.2162 35.0647 71.2143 38.2064ZM101.178 38.2064C101.173 35.0768 100.185 32.0278 98.3543 29.4894C96.5237 26.951 93.9426 25.0511 90.9748 24.0578H90.7197C90.5077 24.0578 90.3044 24.142 90.1545 24.2919C90.0046 24.4418 89.9204 24.6451 89.9204 24.857V25.1121C89.9273 25.4401 90.0289 25.7591 90.2129 26.0307C90.397 26.3022 90.6556 26.5148 90.9578 26.6426C93.2659 27.5792 95.2421 29.1831 96.6335 31.2492C98.0249 33.3153 98.7681 35.7495 98.7681 38.2405C98.7681 40.7314 98.0249 43.1656 96.6335 45.2317C95.2421 47.2978 93.2659 48.9018 90.9578 49.8383C90.6614 49.9675 90.408 50.1785 90.2273 50.4465C90.0466 50.7146 89.946 51.0286 89.9374 51.3518V51.6409C89.9389 51.7669 89.9701 51.8909 90.0286 52.0026C90.0871 52.1142 90.1712 52.2105 90.2741 52.2835C90.3769 52.3564 90.4955 52.404 90.6202 52.4224C90.745 52.4408 90.8723 52.4294 90.9918 52.3891C93.9619 51.391 96.5433 49.4848 98.3712 46.9398C100.199 44.3948 101.181 41.3398 101.178 38.2064Z" fill="white"/>
<g filter="url(#filter1_f_11516_24049)">
<rect x="92" y="0.602051" width="73.7959" height="73.7959" rx="36.898" fill="black"/>
</g>
</g>
<rect x="51.7959" y="3.60205" width="67.7959" height="67.7959" rx="33.898" stroke="#1F5FA4" stroke-width="6"/>
<rect x="100.592" y="3.60205" width="67.7959" height="67.7959" rx="33.898" fill="#26A17B"/>
<rect x="100.592" y="3.60205" width="67.7959" height="67.7959" rx="33.898" stroke="#1C8B69" stroke-width="6"/>
<path fill-rule="evenodd" clip-rule="evenodd" d="M137.615 39.3597V39.3565C137.438 39.3693 136.528 39.4239 134.497 39.4239C132.875 39.4239 131.733 39.3757 131.331 39.3565V39.3613C125.088 39.0867 120.427 37.9995 120.427 36.6988C120.427 35.3996 125.088 34.3124 131.331 34.033V38.2789C131.739 38.3078 132.908 38.3769 134.524 38.3769C136.462 38.3769 137.434 38.2966 137.615 38.2805V34.0362C143.846 34.314 148.495 35.4012 148.495 36.6988C148.495 37.9995 143.846 39.0835 137.615 39.3597ZM137.615 33.5946V29.7951H146.309V24.0011H122.637V29.7951H131.331V33.593C124.265 33.9174 118.952 35.3177 118.952 36.9942C118.952 38.6708 124.265 40.0695 131.331 40.3955V52.5712H137.615V40.3923C144.67 40.0679 149.971 38.6692 149.971 36.9942C149.971 35.3193 144.67 33.9206 137.615 33.5946Z" fill="white"/>
<defs>
<filter id="filter0_f_11516_24049" x="23.7959" y="-19.3979" width="113.796" height="113.796" filterUnits="userSpaceOnUse" color-interpolation-filters="sRGB">
<feFlood flood-opacity="0" result="BackgroundImageFix"/>
<feBlend mode="normal" in="SourceGraphic" in2="BackgroundImageFix" result="shape"/>
<feGaussianBlur stdDeviation="10" result="effect1_foregroundBlur_11516_24049"/>
</filter>
<filter id="filter1_f_11516_24049" x="72" y="-19.3979" width="113.796" height="113.796" filterUnits="userSpaceOnUse" color-interpolation-filters="sRGB">
<feFlood flood-opacity="0" result="BackgroundImageFix"/>
<feBlend mode="normal" in="SourceGraphic" in2="BackgroundImageFix" result="shape"/>
<feGaussianBlur stdDeviation="10" result="effect1_foregroundBlur_11516_24049"/>
</filter>
<linearGradient id="paint0_linear_11516_24049" x1="37" y1="18.6021" x2="37" y2="56.6021" gradientUnits="userSpaceOnUse">
<stop stop-color="#B3B2D3"/>
<stop offset="0.526" stop-color="#8C8ADA"/>
<stop offset="1" stop-color="#6D69DE"/>
</linearGradient>
<clipPath id="clip0_11516_24049">
<rect y="0.602051" width="73.7959" height="73.7959" rx="36.898" fill="white"/>
</clipPath>
<clipPath id="clip1_11516_24049">
<rect width="38" height="38" fill="white" transform="translate(18 18.6021)"/>
</clipPath>
<clipPath id="clip2_11516_24049">
<rect x="48.7959" y="0.602051" width="73.7959" height="73.7959" rx="36.898" fill="white"/>
</clipPath>
</defs>
</svg>
