<svg width="100%" height="100%" viewBox="0 0 123 75" fill="none" xmlns="http://www.w3.org/2000/svg">
<rect x="3.3877" y="3.5918" width="67.7959" height="67.7959" rx="33.898" fill="#151313"/>
<rect x="3.3877" y="3.5918" width="67.7959" height="67.7959" rx="33.898" stroke="#B01A5D" stroke-width="6"/>
<g clip-path="url(#clip0_11543_7476)">
<path d="M27.8055 56.2639C37.8596 56.2639 37.8596 56.1142 39.5643 55.6082C41.7921 54.9468 33.2743 49.0508 27.8055 49.0508C22.3367 49.0508 17.9033 50.6655 17.9033 52.6573C17.9033 54.6492 22.3369 56.2639 27.8055 56.2639Z" fill="black"/>
<path d="M50.6353 25.5947L51.0977 26.093L50.6935 26.6396C37.5811 44.3685 30.0275 52.3957 26.8226 51.3191C24.8705 50.6633 22.9128 48.6912 20.9551 45.8274C20.2669 44.8208 19.6207 43.7608 19.033 42.706C18.6417 42.0036 18.3104 41.363 18.1384 41.0022C17.919 40.5419 17.8264 40.2583 17.7529 39.886C17.7485 39.8631 17.7485 39.8631 17.7442 39.8412C17.7135 39.6831 17.7029 39.6332 17.68 39.5467C17.2854 38.0597 17.0836 36.519 17.0836 34.9525C17.0836 25.0838 25.0838 17.0836 34.9525 17.0836C38.0442 17.0836 41.0236 17.8705 43.6641 19.3475L43.7322 19.3902C45.8941 20.8953 48.1936 22.9634 50.6353 25.5947ZM42.8287 20.7587C40.44 19.4302 37.7485 18.723 34.9525 18.723C25.9892 18.723 18.723 25.9892 18.723 34.9525C18.723 36.3768 18.9063 37.7761 19.2645 39.1263C19.2999 39.2598 19.3159 39.3353 19.3535 39.529C19.3575 39.5493 19.3575 39.5493 19.3613 39.5686C19.4087 39.8089 19.4587 39.9621 19.6183 40.2968C19.7752 40.626 20.0905 41.2358 20.4651 41.9081C21.03 42.9219 21.6507 43.9402 22.3084 44.9022C24.0772 47.4896 25.8314 49.2568 27.3446 49.7651C29.3629 50.4431 36.961 42.4 48.9687 26.2139C46.7887 23.9128 44.7408 22.0944 42.8287 20.7587Z" fill="black"/>
<path d="M42.8288 20.7588C40.44 19.4302 37.7486 18.723 34.9525 18.723C25.9892 18.723 18.723 25.9892 18.723 34.9525C18.723 36.3769 18.9063 37.7762 19.2646 39.1264C19.3 39.2599 19.316 39.3353 19.3536 39.529C19.3575 39.5493 19.3575 39.5493 19.3613 39.5686C19.4087 39.809 19.4588 39.9621 19.6183 40.2969C19.7752 40.626 20.0905 41.2358 20.4652 41.9082C21.03 42.922 21.6508 43.9402 22.3085 44.9023C24.0772 47.4897 25.8314 49.2568 27.3447 49.7652C29.363 50.4432 36.9611 42.4 48.9688 26.214C46.7888 23.9129 44.7409 22.0945 42.8288 20.7588Z" fill="#EC1C79"/>
<path d="M38.2312 56.1C28.3625 56.1 20.3623 48.0999 20.3623 38.2312C20.3623 28.3625 28.3625 20.3623 38.2312 20.3623C48.0999 20.3623 56.1 28.3625 56.1 38.2312C56.1 48.0999 48.0999 56.1 38.2312 56.1ZM38.2312 54.4607C47.1945 54.4607 54.4607 47.1945 54.4607 38.2312C54.4607 29.2678 47.1945 22.0016 38.2312 22.0016C29.2678 22.0016 22.0016 29.2678 22.0016 38.2312C22.0016 47.1945 29.2678 54.4607 38.2312 54.4607Z" fill="black"/>
<path d="M38.2312 54.4607C47.1945 54.4607 54.4607 47.1945 54.4607 38.2312C54.4607 29.2679 47.1945 22.0017 38.2312 22.0017C29.2679 22.0017 22.0017 29.2679 22.0017 38.2312C22.0017 47.1945 29.2679 54.4607 38.2312 54.4607Z" fill="white"/>
<path fill-rule="evenodd" clip-rule="evenodd" d="M26.0908 41.5558L23.9426 35.0837H25.8246L26.9446 38.8017L28.1839 35.0653H29.7171L30.9564 38.8017L32.0764 35.0837H33.9216L31.7734 41.5558H30.222L28.9275 37.8561L27.6423 41.5558H26.0908ZM34.6285 41.5099V35.0837H39.7971V36.5984H36.3912V37.5715H39.4757V38.9761H36.3912V39.9951H39.843V41.5099H34.6285ZM42.3216 41.5099V36.6443H40.3938V35.0837H46.0305V36.6443H44.1026V41.5099H42.3216ZM46.8108 41.5099V35.0837H48.5918V37.4889H50.8777V35.0837H52.6587V41.5099H50.8777V39.0679H48.5918V41.5099H46.8108Z" fill="black"/>
<path d="M18.1484 33.1506C17.6949 32.9239 17.5111 32.3724 17.7379 31.9189C17.9646 31.4654 18.516 31.2816 18.9695 31.5084L21.5925 32.8199C22.046 33.0466 22.2298 33.598 22.003 34.0515C21.7763 34.505 21.2249 34.6888 20.7714 34.4621L18.1484 33.1506Z" fill="black"/>
<path d="M17.8464 37.4997C17.3861 37.2873 17.1851 36.7418 17.3976 36.2815C17.61 35.8211 18.1555 35.6202 18.6158 35.8326L21.2388 37.0432C21.6991 37.2556 21.9001 37.801 21.6876 38.2614C21.4752 38.7217 20.9297 38.9227 20.4694 38.7102L17.8464 37.4997Z" fill="black"/>
</g>
<rect x="52.1836" y="3.5918" width="67.7959" height="67.7959" rx="33.898" fill="black"/>
<rect x="52.1836" y="3.5918" width="67.7959" height="67.7959" rx="33.898" stroke="#B18361" stroke-width="6"/>
<path d="M85.8877 56.5194C96.3975 56.5194 104.917 47.9995 104.917 37.4898C104.917 26.98 96.3975 18.4601 85.8877 18.4601C75.3779 18.4601 66.858 26.98 66.858 37.4898C66.858 47.9995 75.3779 56.5194 85.8877 56.5194Z" stroke="#F5C09A" stroke-width="0.367247" stroke-linecap="round" stroke-linejoin="round"/>
<path d="M85.8877 42.9873V56.5194" stroke="#F5C09A" stroke-width="0.367247" stroke-linecap="round" stroke-linejoin="round"/>
<path d="M85.8877 18.4601V22.4617" stroke="#F5C09A" stroke-width="0.367247" stroke-linecap="round" stroke-linejoin="round"/>
<path d="M85.8877 42.9873L72.9229 32.7338L85.8877 22.4617L98.8526 32.7338L93.062 37.3089" stroke="#F5C09A" stroke-width="0.367247" stroke-linecap="round" stroke-linejoin="round"/>
<path d="M96.858 43.8974L98.8526 42.3079V32.7339" stroke="#F5C09A" stroke-width="0.367247" stroke-linecap="round" stroke-linejoin="round"/>
<path d="M72.9229 32.7339V42.3079L85.8877 52.5801L91.7468 47.9489" stroke="#F5C09A" stroke-width="0.367247" stroke-linecap="round" stroke-linejoin="round"/>
<path d="M75.198 44.1156L72.9852 47.949H80.0473" stroke="#F5C09A" stroke-width="0.367247" stroke-linecap="round" stroke-linejoin="round"/>
<path d="M85.8878 47.9488H98.7903L85.8878 25.5969L79.1498 37.284" stroke="#F5C09A" stroke-width="0.367247" stroke-linecap="round" stroke-linejoin="round"/>
<defs>
<clipPath id="clip0_11543_7476">
<rect width="40" height="40" fill="white" transform="translate(16.5918 16.5918)"/>
</clipPath>
</defs>
</svg>
